<mxfile host="app.diagrams.net" modified="2023-07-07T14:15:18.148Z" agent="5.0 (Windows)" etag="ppoisge2yPaeFQPls_xm" version="16.4.0" type="github">
  <diagram id="6jLI17jsRR7ZUuBPzh9g" name="Page-1">
    <mxGraphModel dx="2055" dy="1096" grid="1" gridSize="10" guides="1" tooltips="1" connect="1" arrows="1" fold="1" page="1" pageScale="1" pageWidth="827" pageHeight="1169" math="0" shadow="0">
      <root>
        <mxCell id="0" />
        <mxCell id="1" parent="0" />
        <mxCell id="Adp7kLugk2mVdxBdtBTh-10" value="&lt;div&gt;Grounded&lt;/div&gt;" style="swimlane;rounded=1;shadow=0;glass=0;labelBackgroundColor=none;labelBorderColor=none;sketch=0;html=1;startSize=30;arcSize=15;" vertex="1" parent="1">
          <mxGeometry x="520" y="80" width="360" height="360" as="geometry">
            <mxRectangle x="520" y="80" width="90" height="23" as="alternateBounds" />
          </mxGeometry>
        </mxCell>
        <mxCell id="Adp7kLugk2mVdxBdtBTh-37" style="edgeStyle=orthogonalEdgeStyle;rounded=0;orthogonalLoop=1;jettySize=auto;html=1;exitX=0.25;exitY=1;exitDx=0;exitDy=0;entryX=0.25;entryY=0;entryDx=0;entryDy=0;" edge="1" parent="Adp7kLugk2mVdxBdtBTh-10" source="Adp7kLugk2mVdxBdtBTh-8" target="Adp7kLugk2mVdxBdtBTh-9">
          <mxGeometry relative="1" as="geometry" />
        </mxCell>
        <mxCell id="Adp7kLugk2mVdxBdtBTh-38" style="edgeStyle=orthogonalEdgeStyle;rounded=0;orthogonalLoop=1;jettySize=auto;html=1;entryX=0.136;entryY=1.091;entryDx=0;entryDy=0;entryPerimeter=0;exitX=0.25;exitY=0;exitDx=0;exitDy=0;" edge="1" parent="Adp7kLugk2mVdxBdtBTh-10" source="Adp7kLugk2mVdxBdtBTh-8" target="Adp7kLugk2mVdxBdtBTh-33">
          <mxGeometry relative="1" as="geometry">
            <Array as="points">
              <mxPoint x="140" y="60" />
              <mxPoint x="70" y="60" />
              <mxPoint x="70" y="330" />
              <mxPoint x="122" y="330" />
            </Array>
          </mxGeometry>
        </mxCell>
        <mxCell id="Adp7kLugk2mVdxBdtBTh-8" value="&lt;div&gt;Idle&lt;/div&gt;" style="rounded=1;whiteSpace=wrap;html=1;shadow=0;glass=0;labelBackgroundColor=none;labelBorderColor=none;sketch=0;verticalAlign=middle;align=left;fillColor=#eeeeee;strokeColor=#36393d;perimeterSpacing=0;spacingLeft=10;spacing=0;spacingTop=0;" vertex="1" parent="Adp7kLugk2mVdxBdtBTh-10">
          <mxGeometry x="99.97" y="80" width="160" height="30" as="geometry" />
        </mxCell>
        <mxCell id="Adp7kLugk2mVdxBdtBTh-40" style="edgeStyle=orthogonalEdgeStyle;rounded=0;orthogonalLoop=1;jettySize=auto;html=1;exitX=0.25;exitY=1;exitDx=0;exitDy=0;entryX=0.25;entryY=0;entryDx=0;entryDy=0;" edge="1" parent="Adp7kLugk2mVdxBdtBTh-10" source="Adp7kLugk2mVdxBdtBTh-9" target="Adp7kLugk2mVdxBdtBTh-33">
          <mxGeometry relative="1" as="geometry" />
        </mxCell>
        <mxCell id="Adp7kLugk2mVdxBdtBTh-9" value="&lt;p style=&quot;line-height: 1.2&quot;&gt;Move&lt;br&gt;&lt;/p&gt;" style="rounded=1;whiteSpace=wrap;html=1;shadow=0;glass=0;labelBackgroundColor=none;labelBorderColor=none;sketch=0;align=left;horizontal=1;fillColor=#eeeeee;strokeColor=#36393d;spacing=0;spacingTop=0;spacingLeft=10;" vertex="1" parent="Adp7kLugk2mVdxBdtBTh-10">
          <mxGeometry x="99.97" y="186" width="160" height="30" as="geometry" />
        </mxCell>
        <mxCell id="Adp7kLugk2mVdxBdtBTh-39" style="edgeStyle=orthogonalEdgeStyle;rounded=0;orthogonalLoop=1;jettySize=auto;html=1;entryX=0.807;entryY=-0.1;entryDx=0;entryDy=0;entryPerimeter=0;exitX=0.75;exitY=1;exitDx=0;exitDy=0;" edge="1" parent="Adp7kLugk2mVdxBdtBTh-10" source="Adp7kLugk2mVdxBdtBTh-33" target="Adp7kLugk2mVdxBdtBTh-8">
          <mxGeometry relative="1" as="geometry">
            <Array as="points">
              <mxPoint x="220" y="330" />
              <mxPoint x="290" y="330" />
              <mxPoint x="290" y="60" />
              <mxPoint x="229" y="60" />
            </Array>
          </mxGeometry>
        </mxCell>
        <mxCell id="Adp7kLugk2mVdxBdtBTh-41" style="edgeStyle=orthogonalEdgeStyle;rounded=0;orthogonalLoop=1;jettySize=auto;html=1;exitX=0.75;exitY=0;exitDx=0;exitDy=0;entryX=0.75;entryY=1;entryDx=0;entryDy=0;" edge="1" parent="Adp7kLugk2mVdxBdtBTh-10" source="Adp7kLugk2mVdxBdtBTh-33" target="Adp7kLugk2mVdxBdtBTh-9">
          <mxGeometry relative="1" as="geometry" />
        </mxCell>
        <mxCell id="Adp7kLugk2mVdxBdtBTh-33" value="Run" style="rounded=1;whiteSpace=wrap;html=1;shadow=0;glass=0;labelBackgroundColor=none;labelBorderColor=none;sketch=0;align=left;horizontal=1;fillColor=#eeeeee;strokeColor=#36393d;spacing=0;spacingTop=0;spacingLeft=10;" vertex="1" parent="Adp7kLugk2mVdxBdtBTh-10">
          <mxGeometry x="99.97" y="276" width="160" height="30" as="geometry" />
        </mxCell>
        <mxCell id="Adp7kLugk2mVdxBdtBTh-35" style="edgeStyle=orthogonalEdgeStyle;rounded=0;orthogonalLoop=1;jettySize=auto;html=1;entryX=0.75;entryY=1;entryDx=0;entryDy=0;" edge="1" parent="Adp7kLugk2mVdxBdtBTh-10" source="Adp7kLugk2mVdxBdtBTh-9" target="Adp7kLugk2mVdxBdtBTh-8">
          <mxGeometry relative="1" as="geometry">
            <mxPoint x="349.97" y="96" as="targetPoint" />
            <Array as="points">
              <mxPoint x="219.97" y="146" />
              <mxPoint x="219.97" y="146" />
            </Array>
          </mxGeometry>
        </mxCell>
        <mxCell id="Adp7kLugk2mVdxBdtBTh-11" value="Jump" style="swimlane;rounded=1;shadow=0;glass=0;labelBackgroundColor=none;labelBorderColor=none;sketch=0;html=1;startSize=30;arcSize=15;" vertex="1" parent="1">
          <mxGeometry x="960" y="80" width="360" height="360" as="geometry">
            <mxRectangle x="960" y="80" width="90" height="23" as="alternateBounds" />
          </mxGeometry>
        </mxCell>
        <mxCell id="Adp7kLugk2mVdxBdtBTh-67" value="&lt;div&gt;Idle&lt;/div&gt;" style="rounded=1;whiteSpace=wrap;html=1;shadow=0;glass=0;labelBackgroundColor=none;labelBorderColor=none;sketch=0;verticalAlign=middle;align=left;fillColor=#eeeeee;strokeColor=#36393d;perimeterSpacing=0;spacingLeft=10;spacing=0;spacingTop=0;" vertex="1" parent="Adp7kLugk2mVdxBdtBTh-11">
          <mxGeometry x="100" y="80" width="160" height="30" as="geometry" />
        </mxCell>
        <mxCell id="Adp7kLugk2mVdxBdtBTh-69" value="&lt;p style=&quot;line-height: 1.2&quot;&gt;Move&lt;br&gt;&lt;/p&gt;" style="rounded=1;whiteSpace=wrap;html=1;shadow=0;glass=0;labelBackgroundColor=none;labelBorderColor=none;sketch=0;align=left;horizontal=1;fillColor=#eeeeee;strokeColor=#36393d;spacing=0;spacingTop=0;spacingLeft=10;" vertex="1" parent="Adp7kLugk2mVdxBdtBTh-11">
          <mxGeometry x="100" y="186" width="160" height="30" as="geometry" />
        </mxCell>
        <mxCell id="Adp7kLugk2mVdxBdtBTh-65" style="edgeStyle=orthogonalEdgeStyle;rounded=0;orthogonalLoop=1;jettySize=auto;html=1;exitX=0.25;exitY=1;exitDx=0;exitDy=0;entryX=0.25;entryY=0;entryDx=0;entryDy=0;" edge="1" source="Adp7kLugk2mVdxBdtBTh-67" target="Adp7kLugk2mVdxBdtBTh-69" parent="Adp7kLugk2mVdxBdtBTh-11">
          <mxGeometry relative="1" as="geometry" />
        </mxCell>
        <mxCell id="Adp7kLugk2mVdxBdtBTh-73" style="edgeStyle=orthogonalEdgeStyle;rounded=0;orthogonalLoop=1;jettySize=auto;html=1;entryX=0.75;entryY=1;entryDx=0;entryDy=0;" edge="1" source="Adp7kLugk2mVdxBdtBTh-69" target="Adp7kLugk2mVdxBdtBTh-67" parent="Adp7kLugk2mVdxBdtBTh-11">
          <mxGeometry relative="1" as="geometry">
            <mxPoint x="350" y="96" as="targetPoint" />
            <Array as="points">
              <mxPoint x="220" y="146" />
              <mxPoint x="220" y="146" />
            </Array>
          </mxGeometry>
        </mxCell>
        <mxCell id="Adp7kLugk2mVdxBdtBTh-122" style="edgeStyle=orthogonalEdgeStyle;rounded=0;orthogonalLoop=1;jettySize=auto;html=1;entryX=1;entryY=0.5;entryDx=0;entryDy=0;fontColor=#1F53FF;strokeColor=#171717;exitX=1;exitY=0.5;exitDx=0;exitDy=0;" edge="1" parent="Adp7kLugk2mVdxBdtBTh-11" source="Adp7kLugk2mVdxBdtBTh-81" target="Adp7kLugk2mVdxBdtBTh-67">
          <mxGeometry relative="1" as="geometry">
            <Array as="points">
              <mxPoint x="290" y="285" />
              <mxPoint x="290" y="95" />
            </Array>
          </mxGeometry>
        </mxCell>
        <mxCell id="Adp7kLugk2mVdxBdtBTh-81" value="Run" style="rounded=1;whiteSpace=wrap;html=1;shadow=0;glass=0;labelBackgroundColor=none;labelBorderColor=none;sketch=0;align=left;horizontal=1;fillColor=#eeeeee;strokeColor=#36393d;spacing=0;spacingTop=0;spacingLeft=10;" vertex="1" parent="Adp7kLugk2mVdxBdtBTh-11">
          <mxGeometry x="100" y="276" width="160" height="30" as="geometry" />
        </mxCell>
        <mxCell id="Adp7kLugk2mVdxBdtBTh-114" style="edgeStyle=orthogonalEdgeStyle;rounded=0;orthogonalLoop=1;jettySize=auto;html=1;entryX=0.5;entryY=1;entryDx=0;entryDy=0;fontColor=#1F53FF;strokeColor=#171717;" edge="1" parent="Adp7kLugk2mVdxBdtBTh-11" source="Adp7kLugk2mVdxBdtBTh-81" target="Adp7kLugk2mVdxBdtBTh-69">
          <mxGeometry relative="1" as="geometry" />
        </mxCell>
        <mxCell id="Adp7kLugk2mVdxBdtBTh-13" value="Fall" style="swimlane;rounded=1;shadow=0;glass=0;labelBackgroundColor=none;labelBorderColor=none;sketch=0;html=1;startSize=30;arcSize=15;" vertex="1" parent="1">
          <mxGeometry x="40" y="80" width="360" height="360" as="geometry">
            <mxRectangle x="40" y="80" width="90" height="23" as="alternateBounds" />
          </mxGeometry>
        </mxCell>
        <mxCell id="Adp7kLugk2mVdxBdtBTh-85" value="&lt;div&gt;Idle&lt;/div&gt;" style="rounded=1;whiteSpace=wrap;html=1;shadow=0;glass=0;labelBackgroundColor=none;labelBorderColor=none;sketch=0;verticalAlign=middle;align=left;fillColor=#eeeeee;strokeColor=#36393d;perimeterSpacing=0;spacingLeft=10;spacing=0;spacingTop=0;" vertex="1" parent="Adp7kLugk2mVdxBdtBTh-13">
          <mxGeometry x="100" y="80" width="160" height="30" as="geometry" />
        </mxCell>
        <mxCell id="Adp7kLugk2mVdxBdtBTh-87" value="&lt;p style=&quot;line-height: 1.2&quot;&gt;Move&lt;br&gt;&lt;/p&gt;" style="rounded=1;whiteSpace=wrap;html=1;shadow=0;glass=0;labelBackgroundColor=none;labelBorderColor=none;sketch=0;align=left;horizontal=1;fillColor=#eeeeee;strokeColor=#36393d;spacing=0;spacingTop=0;spacingLeft=10;" vertex="1" parent="Adp7kLugk2mVdxBdtBTh-13">
          <mxGeometry x="100" y="186" width="160" height="30" as="geometry" />
        </mxCell>
        <mxCell id="Adp7kLugk2mVdxBdtBTh-83" style="edgeStyle=orthogonalEdgeStyle;rounded=0;orthogonalLoop=1;jettySize=auto;html=1;exitX=0.25;exitY=1;exitDx=0;exitDy=0;entryX=0.25;entryY=0;entryDx=0;entryDy=0;" edge="1" source="Adp7kLugk2mVdxBdtBTh-85" target="Adp7kLugk2mVdxBdtBTh-87" parent="Adp7kLugk2mVdxBdtBTh-13">
          <mxGeometry relative="1" as="geometry" />
        </mxCell>
        <mxCell id="Adp7kLugk2mVdxBdtBTh-88" style="edgeStyle=orthogonalEdgeStyle;rounded=0;orthogonalLoop=1;jettySize=auto;html=1;entryX=0;entryY=0.5;entryDx=0;entryDy=0;" edge="1" source="Adp7kLugk2mVdxBdtBTh-90" target="Adp7kLugk2mVdxBdtBTh-85" parent="Adp7kLugk2mVdxBdtBTh-13">
          <mxGeometry relative="1" as="geometry">
            <mxPoint x="80" y="95" as="targetPoint" />
            <Array as="points">
              <mxPoint x="60" y="291" />
              <mxPoint x="60" y="95" />
            </Array>
          </mxGeometry>
        </mxCell>
        <mxCell id="Adp7kLugk2mVdxBdtBTh-89" style="edgeStyle=orthogonalEdgeStyle;rounded=0;orthogonalLoop=1;jettySize=auto;html=1;exitX=0.5;exitY=0;exitDx=0;exitDy=0;entryX=0.5;entryY=1;entryDx=0;entryDy=0;" edge="1" source="Adp7kLugk2mVdxBdtBTh-90" target="Adp7kLugk2mVdxBdtBTh-87" parent="Adp7kLugk2mVdxBdtBTh-13">
          <mxGeometry relative="1" as="geometry">
            <mxPoint x="190" y="240" as="targetPoint" />
            <Array as="points" />
          </mxGeometry>
        </mxCell>
        <mxCell id="Adp7kLugk2mVdxBdtBTh-90" value="Run" style="rounded=1;whiteSpace=wrap;html=1;shadow=0;glass=0;labelBackgroundColor=none;labelBorderColor=none;sketch=0;align=left;horizontal=1;fillColor=#eeeeee;strokeColor=#36393d;spacing=0;spacingTop=0;spacingLeft=10;" vertex="1" parent="Adp7kLugk2mVdxBdtBTh-13">
          <mxGeometry x="100" y="276" width="160" height="30" as="geometry" />
        </mxCell>
        <mxCell id="Adp7kLugk2mVdxBdtBTh-91" style="edgeStyle=orthogonalEdgeStyle;rounded=0;orthogonalLoop=1;jettySize=auto;html=1;entryX=0.75;entryY=1;entryDx=0;entryDy=0;" edge="1" source="Adp7kLugk2mVdxBdtBTh-87" target="Adp7kLugk2mVdxBdtBTh-85" parent="Adp7kLugk2mVdxBdtBTh-13">
          <mxGeometry relative="1" as="geometry">
            <mxPoint x="350" y="96" as="targetPoint" />
            <Array as="points">
              <mxPoint x="220" y="146" />
              <mxPoint x="220" y="146" />
            </Array>
          </mxGeometry>
        </mxCell>
        <mxCell id="Adp7kLugk2mVdxBdtBTh-14" value="Wall" style="swimlane;rounded=1;shadow=0;glass=0;labelBackgroundColor=none;labelBorderColor=none;sketch=0;html=1;startSize=30;arcSize=15;" vertex="1" parent="1">
          <mxGeometry x="319.5" y="600" width="360" height="360" as="geometry">
            <mxRectangle x="40" y="470" width="90" height="23" as="alternateBounds" />
          </mxGeometry>
        </mxCell>
        <mxCell id="Adp7kLugk2mVdxBdtBTh-94" value="&lt;div&gt;Idle&lt;/div&gt;" style="rounded=1;whiteSpace=wrap;html=1;shadow=0;glass=0;labelBackgroundColor=none;labelBorderColor=none;sketch=0;verticalAlign=middle;align=left;fillColor=#eeeeee;strokeColor=#36393d;perimeterSpacing=0;spacingLeft=10;spacing=0;spacingTop=0;" vertex="1" parent="Adp7kLugk2mVdxBdtBTh-14">
          <mxGeometry x="100" y="80" width="160" height="30" as="geometry" />
        </mxCell>
        <mxCell id="Adp7kLugk2mVdxBdtBTh-96" value="&lt;p style=&quot;line-height: 1.2&quot;&gt;Move&lt;br&gt;&lt;/p&gt;" style="rounded=1;whiteSpace=wrap;html=1;shadow=0;glass=0;labelBackgroundColor=none;labelBorderColor=none;sketch=0;align=left;horizontal=1;fillColor=#eeeeee;strokeColor=#36393d;spacing=0;spacingTop=0;spacingLeft=10;" vertex="1" parent="Adp7kLugk2mVdxBdtBTh-14">
          <mxGeometry x="100" y="186" width="160" height="30" as="geometry" />
        </mxCell>
        <mxCell id="Adp7kLugk2mVdxBdtBTh-92" style="edgeStyle=orthogonalEdgeStyle;rounded=0;orthogonalLoop=1;jettySize=auto;html=1;exitX=0.25;exitY=1;exitDx=0;exitDy=0;entryX=0.25;entryY=0;entryDx=0;entryDy=0;" edge="1" source="Adp7kLugk2mVdxBdtBTh-94" target="Adp7kLugk2mVdxBdtBTh-96" parent="Adp7kLugk2mVdxBdtBTh-14">
          <mxGeometry relative="1" as="geometry" />
        </mxCell>
        <mxCell id="Adp7kLugk2mVdxBdtBTh-97" style="edgeStyle=orthogonalEdgeStyle;rounded=0;orthogonalLoop=1;jettySize=auto;html=1;entryX=1;entryY=0.5;entryDx=0;entryDy=0;" edge="1" source="Adp7kLugk2mVdxBdtBTh-99" target="Adp7kLugk2mVdxBdtBTh-94" parent="Adp7kLugk2mVdxBdtBTh-14">
          <mxGeometry relative="1" as="geometry">
            <Array as="points">
              <mxPoint x="290" y="291" />
              <mxPoint x="290" y="95" />
            </Array>
          </mxGeometry>
        </mxCell>
        <mxCell id="Adp7kLugk2mVdxBdtBTh-98" style="edgeStyle=orthogonalEdgeStyle;rounded=0;orthogonalLoop=1;jettySize=auto;html=1;exitX=0.75;exitY=0;exitDx=0;exitDy=0;entryX=0.75;entryY=1;entryDx=0;entryDy=0;" edge="1" source="Adp7kLugk2mVdxBdtBTh-99" target="Adp7kLugk2mVdxBdtBTh-96" parent="Adp7kLugk2mVdxBdtBTh-14">
          <mxGeometry relative="1" as="geometry" />
        </mxCell>
        <mxCell id="Adp7kLugk2mVdxBdtBTh-99" value="Run" style="rounded=1;whiteSpace=wrap;html=1;shadow=0;glass=0;labelBackgroundColor=none;labelBorderColor=none;sketch=0;align=left;horizontal=1;fillColor=#eeeeee;strokeColor=#36393d;spacing=0;spacingTop=0;spacingLeft=10;" vertex="1" parent="Adp7kLugk2mVdxBdtBTh-14">
          <mxGeometry x="100" y="276" width="160" height="30" as="geometry" />
        </mxCell>
        <mxCell id="Adp7kLugk2mVdxBdtBTh-93" style="edgeStyle=orthogonalEdgeStyle;rounded=0;orthogonalLoop=1;jettySize=auto;html=1;entryX=0;entryY=0.5;entryDx=0;entryDy=0;" edge="1" source="Adp7kLugk2mVdxBdtBTh-94" target="Adp7kLugk2mVdxBdtBTh-99" parent="Adp7kLugk2mVdxBdtBTh-14">
          <mxGeometry relative="1" as="geometry">
            <Array as="points">
              <mxPoint x="70" y="95" />
              <mxPoint x="70" y="291" />
            </Array>
          </mxGeometry>
        </mxCell>
        <mxCell id="Adp7kLugk2mVdxBdtBTh-95" style="edgeStyle=orthogonalEdgeStyle;rounded=0;orthogonalLoop=1;jettySize=auto;html=1;exitX=0.25;exitY=1;exitDx=0;exitDy=0;entryX=0.25;entryY=0;entryDx=0;entryDy=0;" edge="1" source="Adp7kLugk2mVdxBdtBTh-96" target="Adp7kLugk2mVdxBdtBTh-99" parent="Adp7kLugk2mVdxBdtBTh-14">
          <mxGeometry relative="1" as="geometry" />
        </mxCell>
        <mxCell id="Adp7kLugk2mVdxBdtBTh-100" style="edgeStyle=orthogonalEdgeStyle;rounded=0;orthogonalLoop=1;jettySize=auto;html=1;entryX=0.75;entryY=1;entryDx=0;entryDy=0;" edge="1" source="Adp7kLugk2mVdxBdtBTh-96" target="Adp7kLugk2mVdxBdtBTh-94" parent="Adp7kLugk2mVdxBdtBTh-14">
          <mxGeometry relative="1" as="geometry">
            <mxPoint x="350" y="96" as="targetPoint" />
            <Array as="points">
              <mxPoint x="220" y="146" />
              <mxPoint x="220" y="146" />
            </Array>
          </mxGeometry>
        </mxCell>
        <mxCell id="Adp7kLugk2mVdxBdtBTh-15" value="&lt;div&gt;Swing&lt;/div&gt;" style="swimlane;rounded=1;shadow=0;glass=0;labelBackgroundColor=none;labelBorderColor=none;sketch=0;html=1;startSize=30;arcSize=15;" vertex="1" parent="1">
          <mxGeometry x="720.5" y="600" width="360" height="360" as="geometry">
            <mxRectangle x="40" y="470" width="90" height="23" as="alternateBounds" />
          </mxGeometry>
        </mxCell>
        <mxCell id="Adp7kLugk2mVdxBdtBTh-103" value="&lt;div&gt;Idle&lt;/div&gt;" style="rounded=1;whiteSpace=wrap;html=1;shadow=0;glass=0;labelBackgroundColor=none;labelBorderColor=none;sketch=0;verticalAlign=middle;align=left;fillColor=#eeeeee;strokeColor=#36393d;perimeterSpacing=0;spacingLeft=10;spacing=0;spacingTop=0;" vertex="1" parent="Adp7kLugk2mVdxBdtBTh-15">
          <mxGeometry x="100" y="80" width="160" height="30" as="geometry" />
        </mxCell>
        <mxCell id="Adp7kLugk2mVdxBdtBTh-105" value="&lt;p style=&quot;line-height: 1.2&quot;&gt;Move&lt;br&gt;&lt;/p&gt;" style="rounded=1;whiteSpace=wrap;html=1;shadow=0;glass=0;labelBackgroundColor=none;labelBorderColor=none;sketch=0;align=left;horizontal=1;fillColor=#eeeeee;strokeColor=#36393d;spacing=0;spacingTop=0;spacingLeft=10;" vertex="1" parent="Adp7kLugk2mVdxBdtBTh-15">
          <mxGeometry x="100" y="186" width="160" height="30" as="geometry" />
        </mxCell>
        <mxCell id="Adp7kLugk2mVdxBdtBTh-101" style="edgeStyle=orthogonalEdgeStyle;rounded=0;orthogonalLoop=1;jettySize=auto;html=1;exitX=0.25;exitY=1;exitDx=0;exitDy=0;entryX=0.25;entryY=0;entryDx=0;entryDy=0;" edge="1" source="Adp7kLugk2mVdxBdtBTh-103" target="Adp7kLugk2mVdxBdtBTh-105" parent="Adp7kLugk2mVdxBdtBTh-15">
          <mxGeometry relative="1" as="geometry" />
        </mxCell>
        <mxCell id="Adp7kLugk2mVdxBdtBTh-106" style="edgeStyle=orthogonalEdgeStyle;rounded=0;orthogonalLoop=1;jettySize=auto;html=1;entryX=1;entryY=0.5;entryDx=0;entryDy=0;" edge="1" source="Adp7kLugk2mVdxBdtBTh-108" target="Adp7kLugk2mVdxBdtBTh-103" parent="Adp7kLugk2mVdxBdtBTh-15">
          <mxGeometry relative="1" as="geometry">
            <Array as="points">
              <mxPoint x="290" y="291" />
              <mxPoint x="290" y="95" />
            </Array>
          </mxGeometry>
        </mxCell>
        <mxCell id="Adp7kLugk2mVdxBdtBTh-107" style="edgeStyle=orthogonalEdgeStyle;rounded=0;orthogonalLoop=1;jettySize=auto;html=1;exitX=0.75;exitY=0;exitDx=0;exitDy=0;entryX=0.75;entryY=1;entryDx=0;entryDy=0;" edge="1" source="Adp7kLugk2mVdxBdtBTh-108" target="Adp7kLugk2mVdxBdtBTh-105" parent="Adp7kLugk2mVdxBdtBTh-15">
          <mxGeometry relative="1" as="geometry" />
        </mxCell>
        <mxCell id="Adp7kLugk2mVdxBdtBTh-108" value="Run" style="rounded=1;whiteSpace=wrap;html=1;shadow=0;glass=0;labelBackgroundColor=none;labelBorderColor=none;sketch=0;align=left;horizontal=1;fillColor=#eeeeee;strokeColor=#36393d;spacing=0;spacingTop=0;spacingLeft=10;" vertex="1" parent="Adp7kLugk2mVdxBdtBTh-15">
          <mxGeometry x="100" y="276" width="160" height="30" as="geometry" />
        </mxCell>
        <mxCell id="Adp7kLugk2mVdxBdtBTh-102" style="edgeStyle=orthogonalEdgeStyle;rounded=0;orthogonalLoop=1;jettySize=auto;html=1;entryX=0;entryY=0.5;entryDx=0;entryDy=0;" edge="1" source="Adp7kLugk2mVdxBdtBTh-103" target="Adp7kLugk2mVdxBdtBTh-108" parent="Adp7kLugk2mVdxBdtBTh-15">
          <mxGeometry relative="1" as="geometry">
            <Array as="points">
              <mxPoint x="70" y="95" />
              <mxPoint x="70" y="291" />
            </Array>
          </mxGeometry>
        </mxCell>
        <mxCell id="Adp7kLugk2mVdxBdtBTh-104" style="edgeStyle=orthogonalEdgeStyle;rounded=0;orthogonalLoop=1;jettySize=auto;html=1;exitX=0.25;exitY=1;exitDx=0;exitDy=0;entryX=0.25;entryY=0;entryDx=0;entryDy=0;" edge="1" source="Adp7kLugk2mVdxBdtBTh-105" target="Adp7kLugk2mVdxBdtBTh-108" parent="Adp7kLugk2mVdxBdtBTh-15">
          <mxGeometry relative="1" as="geometry" />
        </mxCell>
        <mxCell id="Adp7kLugk2mVdxBdtBTh-109" style="edgeStyle=orthogonalEdgeStyle;rounded=0;orthogonalLoop=1;jettySize=auto;html=1;entryX=0.75;entryY=1;entryDx=0;entryDy=0;" edge="1" source="Adp7kLugk2mVdxBdtBTh-105" target="Adp7kLugk2mVdxBdtBTh-103" parent="Adp7kLugk2mVdxBdtBTh-15">
          <mxGeometry relative="1" as="geometry">
            <mxPoint x="350" y="96" as="targetPoint" />
            <Array as="points">
              <mxPoint x="220" y="146" />
              <mxPoint x="220" y="146" />
            </Array>
          </mxGeometry>
        </mxCell>
        <mxCell id="Adp7kLugk2mVdxBdtBTh-110" value="" style="endArrow=none;dashed=1;html=1;dashPattern=1 3;strokeWidth=2;rounded=0;" edge="1" parent="1">
          <mxGeometry width="50" height="50" relative="1" as="geometry">
            <mxPoint x="100" y="560" as="sourcePoint" />
            <mxPoint x="1300" y="560" as="targetPoint" />
          </mxGeometry>
        </mxCell>
        <mxCell id="Adp7kLugk2mVdxBdtBTh-116" style="edgeStyle=orthogonalEdgeStyle;rounded=0;orthogonalLoop=1;jettySize=auto;html=1;entryX=1;entryY=0.5;entryDx=0;entryDy=0;fontColor=#1F53FF;strokeColor=#0A12FF;startArrow=classic;startFill=1;" edge="1" parent="1" source="Adp7kLugk2mVdxBdtBTh-9" target="Adp7kLugk2mVdxBdtBTh-87">
          <mxGeometry relative="1" as="geometry" />
        </mxCell>
        <mxCell id="Adp7kLugk2mVdxBdtBTh-117" style="edgeStyle=orthogonalEdgeStyle;rounded=0;orthogonalLoop=1;jettySize=auto;html=1;entryX=1;entryY=0.5;entryDx=0;entryDy=0;fontColor=#1F53FF;strokeColor=#0A12FF;startArrow=classic;startFill=1;" edge="1" parent="1" source="Adp7kLugk2mVdxBdtBTh-33" target="Adp7kLugk2mVdxBdtBTh-90">
          <mxGeometry relative="1" as="geometry" />
        </mxCell>
        <mxCell id="Adp7kLugk2mVdxBdtBTh-123" style="edgeStyle=orthogonalEdgeStyle;rounded=0;orthogonalLoop=1;jettySize=auto;html=1;entryX=0;entryY=0.5;entryDx=0;entryDy=0;fontColor=#1F53FF;strokeColor=#0A12FF;startArrow=classic;startFill=1;" edge="1" parent="1" source="Adp7kLugk2mVdxBdtBTh-85" target="Adp7kLugk2mVdxBdtBTh-8">
          <mxGeometry relative="1" as="geometry" />
        </mxCell>
        <mxCell id="Adp7kLugk2mVdxBdtBTh-124" style="edgeStyle=orthogonalEdgeStyle;rounded=0;orthogonalLoop=1;jettySize=auto;html=1;entryX=0;entryY=0.5;entryDx=0;entryDy=0;fontColor=#1F53FF;startArrow=classic;startFill=1;strokeColor=#0A12FF;" edge="1" parent="1" source="Adp7kLugk2mVdxBdtBTh-8" target="Adp7kLugk2mVdxBdtBTh-67">
          <mxGeometry relative="1" as="geometry" />
        </mxCell>
        <mxCell id="Adp7kLugk2mVdxBdtBTh-125" style="edgeStyle=orthogonalEdgeStyle;rounded=0;orthogonalLoop=1;jettySize=auto;html=1;entryX=0;entryY=0.5;entryDx=0;entryDy=0;fontColor=#1F53FF;startArrow=classic;startFill=1;strokeColor=#0A12FF;" edge="1" parent="1" source="Adp7kLugk2mVdxBdtBTh-9" target="Adp7kLugk2mVdxBdtBTh-69">
          <mxGeometry relative="1" as="geometry" />
        </mxCell>
        <mxCell id="Adp7kLugk2mVdxBdtBTh-126" style="edgeStyle=orthogonalEdgeStyle;rounded=0;orthogonalLoop=1;jettySize=auto;html=1;entryX=0;entryY=0.5;entryDx=0;entryDy=0;fontColor=#1F53FF;startArrow=classic;startFill=1;strokeColor=#0A12FF;" edge="1" parent="1" source="Adp7kLugk2mVdxBdtBTh-33" target="Adp7kLugk2mVdxBdtBTh-81">
          <mxGeometry relative="1" as="geometry" />
        </mxCell>
      </root>
    </mxGraphModel>
  </diagram>
</mxfile>
